<?xml version="1.0" encoding="utf-8"?>
<!-- Generator: Adobe Illustrator 29.8.2, SVG Export Plug-In . SVG Version: 9.03 Build 0)  -->
<svg version="1.0" id="Layer_1" xmlns="http://www.w3.org/2000/svg" xmlns:xlink="http://www.w3.org/1999/xlink" x="0px" y="0px"
	 viewBox="0 0 160 160" style="enable-background:new 0 0 160 160;" xml:space="preserve">
<style type="text/css">
	.st0{fill:#B4B8C6;}
	.st1{fill:#333B60;}
	.st2{fill:#BC1E2C;}
	.st3{fill:#383F63;}
	.st4{fill:#343C61;}
	.st5{fill:#363D62;}
	.st6{fill:#353D61;}
	.st7{fill:#363E62;}
	.st8{fill:#343C60;}
	.st9{fill:#373F63;}
	.st10{fill:#F9F9FB;}
	.st11{fill:#373F62;}
	.st12{fill:#384064;}
	.st13{fill:#BF2332;}
	.st14{fill:#BD2231;}
	.st15{fill:#BE2231;}
	.st16{fill:#BF2231;}
	.st17{fill:#EEEFF2;}
	.st18{fill:#F7F7F8;}
	.st19{fill:#EFEFF2;}
	.st20{fill:#C22F3D;}
	.st21{fill:#E0969D;}
	.st22{fill:#C57179;}
	.st23{fill:#BD3343;}
	.st24{fill:#D4D6DF;}
	.st25{fill:#C3646E;}
	.st26{fill:#D3D5DD;}
	.st27{fill:#D18C92;}
	.st28{fill:#A9ADBC;}
	.st29{fill:#B3B7C4;}
	.st30{fill:#D16C77;}
	.st31{fill:#A0A2B3;}
	.st32{fill:#C87F87;}
	.st33{fill:#DE8D94;}
	.st34{fill:#C66C76;}
	.st35{fill:#9296AB;}
	.st36{fill:#FDFDFD;}
	.st37{fill:#E9B1B6;}
	.st38{fill:#EAB5B9;}
	.st39{fill:#EABABE;}
	.st40{fill:#E9B8BB;}
	.st41{fill:#FEFEFE;}
	.st42{fill:#E6E8EB;}
	.st43{fill:#B7BBC8;}
	.st44{fill:#D7D8DF;}
	.st45{fill:#DDDFE5;}
	.st46{fill:#F3F4F5;}
	.st47{fill:#F3DCDE;}
	.st48{fill:#FAF1F2;}
	.st49{fill:#BE1F2E;}
	.st50{fill:#BF2533;}
	.st51{fill:#CB4E59;}
	.st52{fill:#C43443;}
	.st53{fill:#DD9097;}
	.st54{fill:#DD8C95;}
</style>
<path class="st0" d="M26.15,89.53c-0.05,0.18,0.03,0.46,0,0.66c-0.99,0.02-0.63-1.42-0.66-2.21C25.91,88.4,25.56,89.21,26.15,89.53z
	"/>
<g>
	<path class="st1" d="M55.18,35.24c-3.49,0.81-8.94,2.85-11.42,5.53c-1.04,1.12-1.9,2.48-1.86,4.08c0.09,3.54,1.93,8.22,2.36,11.84
		c0.12,0.98,0.12,1.56-0.3,2.47c-0.68,1.45-1.67,1.8-2.8,2.68c-0.22,0.17-0.6,1.05-1.06,0.67c-0.35-0.29-1.72-7.68-1.94-8.81
		c-0.6-3.08-1.96-8.93-1.23-11.76c0.66-2.58,3.13-5.69,5.24-7.28c2.59-1.95,7.48-4.21,10.52-5.15c4.99-1.54,10.61-2.34,15.89-2.9
		c0.74-0.08,1.76,0.14,2.39-0.01c0.18-0.04,0.06-0.4,0.47-0.46c2.84-0.37,13.15-0.37,15.99,0c0.41,0.05,0.29,0.41,0.47,0.46
		c0.59,0.14,1.49-0.07,2.17,0.01c9.28,0.99,25.41,3.68,30.43,12.56c2.3,4.07,1.44,6.9,0.65,11.21c-0.5,2.7-1.1,5.81-1.73,8.46
		c-0.2,0.85-1.36,0.49-2,0.24c-0.43-0.16-0.4-0.47-0.6-0.55c-0.66-0.24-2.35-0.16-2.5-1.02l2.45-12.42
		c-0.15-3.39-2.21-4.93-4.83-6.46c-3.25-1.9-5.72-2.68-9.41-3.63c-8.85-2.3-18.29-3.27-27.77-2.87c-5.76,0.24-11.36,1.2-16.94,2.23
		C56.98,34.69,56.09,34.98,55.18,35.24z"/>
	<path class="st1" d="M122.99,101.72l0,0.66l-13.08,1.22c-0.55,0.27-0.48,1.55-0.68,2.2c-0.57,1.93-2.38,2.44-3.84,3.48
		c-7.79,5.57-15.95,10.9-23.91,16.21c-1.43,0.96-2.99,0.81-4.43-0.07c-0.16-0.1-0.22-0.37-0.44-0.51
		c-6.03-3.65-11.81-7.95-17.73-11.97c-1.88-1.27-8.26-4.86-9.12-6.38c-0.49-0.87-0.37-1.89-0.62-2.7c-0.31-0.98-1.73-0.49-2.51-0.59
		c-1.19-0.15-3.27-0.95-4.86-0.68l-5.21-0.89H122.99z"/>
	<path class="st2" d="M39.45,70.03c0.47-1.42,1.17-4.09,2.58-4.83c0.38-0.2,0.88-0.16,1.24-0.32c1.88-0.86,3.65-6.52,6.56-8.11
		c3.28-1.79,8.14-3.76,11.61-5.19c5.01-2.06,7.13-2.19,12.7-1.51c0.26,0.03,1.12,0.35,1.98,0.46c6.4,0.84,13.45,1.62,18.4,5.98
		c0.13,0.12,0.83,1.07,0.77,1.11c-5.51,0.07-11.01-0.03-16.5-0.24c-1.88-1.36-3.98-2.39-6.03-3.61c-0.41-0.24-0.91-1.25-1.85-1.03
		l4.98,5.1c0.54,0.54,1.32,0.47,1.93,0.68c0.17,0.06,0.16,0.36,0.34,0.41c2.33,0.64,4.91,0.03,7.25,0
		c8.34-0.09,16.9,0.22,25.16,1.12c1.24,0.12,2.42,0.42,3.55,0.89c1.86,0.29,3.03,0.24,4.43,1.77c0.49,0.78,0.56,1.73-0.22,0.66
		c-0.04-0.07-0.16-0.14-0.22-0.22l-0.55-0.32c-0.16,0.35-0.27,0.4-0.33,0.14l0.44,1.51c0.32,0.81,1.08,2.61,0.9,3.4
		c-0.07,0.31-0.94,0.36-1.22,0.38c-2.36,0.17-9.24,0.29-11.3-0.24c-1.77-0.46-3.14-5.4-4.35-6.29c-0.33-0.24-0.9-0.35-1.31-0.35
		c-0.21,0.16,2.93,4.32,0.67,4.65c0.01-0.38,0.05-0.75-0.11-1.11c-0.05-0.11-1.46-1.47-1.67-1.65c-0.86-0.73-3.92-2.56-4.97-2.56
		h-3.77c-0.71,0,0.32,1.36,0.46,1.53c1.38,1.74,2.52,2.45,4.57,3.14c0.19,0.06,0.18,0.38,0.33,0.41c0.64,0.15,1.59-0.09,2.28,0.01
		c-0.24,0.49-1.63,0.65-2.11,0.67c-2.61,0.07-3.96-0.73-5.73-2.46c-0.92-0.9-1.8-2.15-2.57-3.19c-6.47-0.39-12.95,0.58-19.4,0.98
		c-3.73,1.41-9,0.75-12.66,2.23l-8.93,1.11c0-0.35,0.69-0.4,0.97-0.47c1.15-0.31,2.4-0.38,3.51-0.65c4.81-1.18,9.97-2.63,14.75-3.73
		c1.68-0.39,3.44-0.6,5.15-0.91c-0.08-0.39-0.45-0.43-0.78-0.46c-1.44-0.1-4.67,1.36-4.32-1.4c0.28-2.19,4.43-1.15,4.43-1.57
		c-0.71-1.27-2.6-3.76-4.1-3.89c-0.75-0.07-5.33,1-5.81,1.4c-0.73,0.61-1.97,5.2-2.28,6.37c-0.38,0.01-0.48,0.12-0.43-0.32
		c0.08-0.77,1.51-5.04,1.32-5.22c-1.03,0.22-2.41,0.53-3.37,0.9c-0.21,0.08-0.2,0.39-0.45,0.49c-2,0.81-3.1,0.34-3.93,2.6
		c-0.13,0.27-0.31,0.44-0.54,0.5c0.1-0.93-0.09-1.31-0.57-1.17c-2.24,0.99-4.42,6.29-6.56,8.18c-0.66,0.59-1.67,0.65-2.23,1.2
		c-0.7,0.68-1.09,1.93-1.4,2.81C39.66,71,38.99,72.14,39.45,70.03z"/>
	<path class="st2" d="M109.92,80c1.56-0.59,3.6-0.32,5.16-0.67c0.17-0.04,0.17-0.36,0.33-0.42c0.48-0.17,1.72-0.21,1.6-0.9
		c-6.95,0.92-14.06,0.82-21.06,0.35c-0.51-0.36,0.17-2.63,0.35-3.23c0.29-0.97,1.67-4.41,2.32-5c1.14-1.02,5.24-1.07,6.52-0.29
		c0.58,0.36,0.68,0.88,1.04,1.17c0.99,0.79,8.88,0.78,10.13,0.18c0.41-0.19,0.47-0.63,0.73-0.82c0.86-0.66,2.49-0.57,3.53-0.57
		c0.28,4.08-0.99,8.33-4.65,10.42C114.24,80.81,111.51,80.76,109.92,80z"/>
	<path class="st3" d="M84.65,79.56c0.99-0.7,3.22-0.71,4.21,0c6.94,0.05,14.07,0.22,21.05,0.44c1.88,0.06,4.05,0.09,5.98,0.22
		c1.3,0.09,3.32,0.63,4.36,0.88c0.83,0.2,2.64-0.52,2.73,0.67c-0.28-0.1-0.65,0.22-0.78,0.22h-83.1c-0.04,0-0.86-0.21-0.77-0.44
		l5.17-0.45c0.41-0.4,2.71-0.81,3.48-0.88c0.5-0.61,1.98-0.67,2.44,0c7.47-0.42,15.1-0.37,22.6-0.44c0.19-0.65,1.92-0.88,2.22-0.22
		c0.46-0.22,0.95-0.43,1.46-0.45C78.58,78.95,81.91,78.89,84.65,79.56z"/>
	<path class="st2" d="M73.8,67.59c1.55-1.7,3.39-2.85,5.88-2.89c0.71-0.01,2.8,0.28,3.44,0.56c0.25,0.11,2.05,1.29,2.28,1.48
		c3.24,2.71,4.2,8.86,3.47,12.82c-1.33-0.01-2.88,0-4.21,0l-0.37-0.45c1.28-11.34-10.63-11.08-9.6-0.07l-0.44,0.53
		c-0.56,0-1.44,0.21-2.22,0.22c-0.27-7.08,4.28-14.3,12.19-11.3c-0.96-1.09-2.21-2.04-3.68-2.19c-2.63-0.26-4.89,0.86-6.94,2.32
		c-0.1,0.07-2.06,1.99-1.57,0.87c0.07-0.17,0.41-0.27,0.44-0.33C72.76,68.45,73.21,67.94,73.8,67.59z"/>
	<path class="st4" d="M26.81,92.63c-0.25,0.52-1.63,3.62-1.81,3.73c-0.15,0.09-1.34,0.09-1.49,0.01c-0.32-0.2-0.32-3.6-0.5-4.26
		l-0.41-1.69c0.21,1.11-0.59,2.23-0.62,3.28c-0.02,0.52,0.28,0.74,0.3,1.04c0.01,0.18-0.26,1.67-0.34,1.67h-3.32
		c-0.43-1.28,0.78-2.04,1.05-2.82c0.13-0.36,0.79-3.89,0.8-4.32c0.02-0.49-0.65-2.09-0.06-2.58c0.24-0.2,4.35,0.1,5.07-0.03
		c0.01,0.44-0.02,0.89,0,1.33c0.21,1.78,0.44,2.3,0.66,1.55c0.19-0.71,0.37-0.8,0.66-1.33c0.16-0.62,0.46-1.14,0.89-1.55
		c1.48-0.14,3.15,0.1,4.65,0c0.07,0.06-0.26,1.5-0.37,1.72c-1.26,2.43-1.46,3.64-1.27,6.37c0.01,0.08-0.26,1.67-0.35,1.67H26.7
		c-0.06,0-0.13,0.18-0.22,0.18c-0.84-0.06,0.18-2.03,0.33-2.39C27.51,93.71,27.88,91.84,26.81,92.63z"/>
	<path class="st4" d="M121.88,86.65c0.73,0.01,3.64-0.14,4,0.1c0.37,0.53,1.3,4.01,1.66,4.11c0.43,0.12,0.73-1.27,0.74-1.51
		c0.02-0.52-0.36-0.68-0.38-1.03c-0.02-0.28,0.29-1.68,0.53-1.68h3.21c0.32,1.32-0.65,1.81-1,2.87c-0.32,0.96-1.17,6.6-1.46,6.85
		c-0.18,0.16-2.56-0.06-3.07,0.01c0.03-0.47-1.65-5.36-2-5.09c-0.08,0.72-0.58,1.73-0.56,2.42c0.01,0.35,0.34,0.59,0.36,1.01
		c0.01,0.19-0.19,1.6-0.25,1.65c-0.12,0.12-2.81,0.01-3.31,0.01c-1.05-0.52-0.04-1.86,0.66-2.44c-0.19-0.06-0.19-0.13,0-0.22
		c0.42-0.57,0.64-1.31,0.66-2.22c-0.58-0.32-0.45-1.28,0.22-1.33c0.32-0.67,0.32-1.41,0-2.22
		C121.46,87.67,121.51,86.99,121.88,86.65z"/>
	<path class="st5" d="M71.8,90.86c0.25-1.37,0.3-2.79,0.17-4.25c2.08-0.09,4.25-0.12,6.26-0.08c3.95,1.31,1.64,9.9-2.44,9.87
		c-1.59,0.14-3.69,0.3-5.32,0c-0.64-0.5-0.41-1.31,0.66-2.44C71.58,92.64,71.59,92.19,71.8,90.86z"/>
	<path class="st6" d="M98.84,96.4c-1.18-0.01-2.37,0.01-3.55,0c-0.14-1.45,0.29-2.13,1.2-3.13l2.9-6.62h3.88l0.23,6.97
		c0.15,0.9,0.8,0.91,0.87,1.01c0.18-0.05,0.41-0.07,0.49,0.06c1.16,2.11,3.32,0.29,2.02-1.59c-0.19-0.75,0.71-1.58,1.26-0.91
		c0.78,0.93,0.6,3.38-0.22,4.21c-0.59,0-3.85,0.14-3.99,0c-0.1-0.1,0.16-1.11-0.11-1.11c-0.29,0.17,0,1-0.11,1.11
		c-0.15,0.15-3.6,0-4.21,0C99.25,96.29,99.04,96.22,98.84,96.4z"/>
	<path class="st7" d="M47.2,90.86c-0.91,0.5-0.91,0.87-0.01,1.11c1.05,0.82,0.65,2.89-0.43,3.54c-0.43,0.27-0.66,0.32-1.04,0.52
		c-0.11,0.05-0.05,0.37-0.06,0.37h-6.2c0.03-0.58,0.14-1.42,0.38-1.94c0.74-1.59,1.33-2.92,1.58-4.88c0.08-0.62-0.95-2.19,0.03-2.83
		c0.25-0.16,4.82-0.18,5.44-0.11C49.46,86.95,49.25,90.1,47.2,90.86z"/>
	<path class="st8" d="M36.87,96.05c-0.06,0.03-0.06,0.3-0.24,0.35c-2.25,0.5-4.97-0.05-5.15-2.8c-0.15-2.33,1.23-6.52,3.88-6.93
		c3.77-0.59,5.21,0.73,4.73,4.51C39.81,93.37,38.82,95.07,36.87,96.05z"/>
	<path class="st3" d="M86.43,96.4l-7.47,0.2c-0.58-0.4-0.02-2.6,0.73-2.89l0.97-4.48c-0.65-0.73-0.42-2.69,0.56-2.58
		c0.02-0.11,0.04-0.19,0.07-0.19c2.12-0.04,4.64-0.02,6.76,0.03c0.05,0,0.1,0.07,0.15,0.16l0.23,0.12l-0.44,2.82
		c0.59,1.4-1.97,1.36-2.92,1.07c-0.25,1.19,0.42,1.7,2.02,1.53L86.43,96.4z"/>
	<path class="st8" d="M139.39,91.52c0.32,1.09-0.93,1.78-1.07,2.14c-0.2,0.51,0.04,1.42-0.47,1.97c-0.28,0.3-0.83,0.25-1.06,0.75
		c-2.14,0.22-3.98,0.46-5.48-1.34c-1.08-2.78,0.51-7.94,3.77-8.39c0.69-0.09,4.39-0.1,4.54,0.57c0.06,0.25-0.27,2.18-0.4,2.46
		c-0.32,0.71-2.62,0.6-2.72,0.5c-0.09-0.09,0.27-2.42-1.18-1.34c-0.3,0.23-1.3,4.68-1.23,4.98c0.13,0.57,1.17,0.43,1.42-0.1
		c0.13-0.28-0.47-2.21,0.21-2.21H139.39z"/>
	<path class="st9" d="M68.48,86.65c-0.13,0.58-0.37,3.47-0.65,3.67c-0.26,0.18-1.94,0.17-2.24-0.01l0.01-1.67
		c-1.28-0.4-1.56,0.81-1.34,1.88c0.07,0.35,0.9-0.35,0.63,0.85c-0.23,1.01-1.52,0.62-1.49,2.28c0.01,0.64,1.16,0.67,1.31,0.52
		c0.48-0.45-0.63-2.72,2.67-1.99L66.7,96.4h-7.31c0.12-0.55,0.15-1.46,0.37-1.94c0.16-0.34,0.58-0.32,0.7-0.64
		c0.6-1.68,0.65-3.83,0.54-5.46c-0.02-0.28,0.24-1.71,0.49-1.71H68.48z"/>
	<path class="st10" d="M71.8,90.86c0.27-1.49,0.03-2.94-0.22-4.43h5.65c0.05,0,0.34-0.55,0.84-0.42c0.35,0.09,1.35,1.41,1.8,1.3
		c0.32-0.07,0.44-1.05,1.11-1.09c0.28-0.01,0.71,0.21,1.12,0.22c1.72,0.02,3.91,0.15,5.56,0c0.47-0.04,0.82-0.45,1.05-0.42
		c0.2,0.03,0.43,0.37,0.92,0.42c1.45,0.13,6.73-0.34,7.53,0.22c1.28,0.91-0.38,1.59-0.52,1.79c-0.12,0.16,0.37,0.79,0.15,1.25
		c-0.03,0.06-0.93,0.8-1.02,0.83c-0.51,0.13-1.6-0.19-2.02-0.55c0.1,0.87,0.2,2.42-0.22,3.17c-0.12,0.21-0.66,0.08-0.44,0.81
		c1.15-0.44,0.93,2.43,0.45,2.79c-0.36,0.28-0.67-0.13-0.79-0.13h-4.65c-0.4,0-0.35-0.96-0.13-1.25l1.13-1.41
		c0.47,0.21,0.31,0.69-0.22,0.66c0.31,0.28,0.39,0.71,0.22,1.3c0.22,0.08,3.51,0.11,3.64-0.01c0.09-0.08,0.39-1.7-0.23-1.67
		c-0.17-0.82,0.6-5.55,1.27-5.9c0.84-0.44,1.13,0.23,1.11,1c0.91,0.07,1.01,0.06,1.04-0.88l0.47-0.27l0.09-1.28
		c-0.81-0.16-7.39-0.36-7.65-0.07c-0.13,0.13-0.56,2.51-0.51,2.65c0.1,0.29,1.7,0.33,1.65-0.41c-0.59-0.58,0.29-1.16,0.9-0.73
		c0.41,0.29,0.17,4.03-0.9,3.61c0.44-2.39-1.57-1.17-2.97-0.85c-0.72,0.16-1.93-0.3-1.68,0.85l1.77,0.22
		c-0.55,0.09-1.83-0.19-2.23,0.1c-0.39,0.28-0.21,2.63-1.55,1.79c-0.31-0.19,0-1.54,0.21-1.8c0.26-0.32,0.96-0.25,1.1-0.67
		c0.44-1.29-0.6-0.86-0.65-1.09c-0.06-0.3,0.06-1.72,0.27-1.84c0.23-0.14,1.02-0.07,1.2,0.19c0.2,0.27-0.54,1.09-0.13,1.45
		c0.31,0.18,1.98,0.19,2.24,0.01c0.15-0.11,0.74-3.2,0.65-3.67h-6.98c-0.23,0-0.51,1.24-0.51,1.51c-0.01,0.53,0.36,0.68,0.38,1.03
		c0.02,0.24-0.88,4.35-1.02,4.73c-0.1,0.25-0.44,0.22-0.63,0.7c-0.11,0.27-0.44,1.67-0.33,1.78l7.31,0l-7.63,0.42l-0.46-0.87
		c-0.54,0.14-1.52,0.84-2,0.88c-0.38,0.04-0.85-0.23-1.31-0.23c-1.08,0-4.33,0.24-5.08,0.02c-0.3-0.08-0.29-1.16-0.1-1.41l1.29-1.26
		c-0.27,0.8-0.93,1.4-0.66,2.44h5.32c0.02,0-0.05-0.33,0.06-0.38c0.81-0.34,1.27-0.18,2.06-0.94c1.53-1.47,2.66-5.74,1.3-7.52
		c-1.11-1.46-5.24-0.75-6.94-0.88c-0.51,1.06,0.02,1.96-0.01,2.96C72.23,90.24,71.83,90.68,71.8,90.86z"/>
	<path class="st11" d="M89.97,89.09c0.06,0.65-1.26,0.73-1.62,0.55c-0.13-0.06,0.36-2.72,0.54-2.88l7.62,0.01L96.4,88.2
		c-0.02,0.25-0.18,1.49-0.23,1.54c-0.06,0.06-1.7,0.08-1.76,0.01c-0.07-0.07,0.05-0.86,0-1.11c-0.37-0.07-0.47,0.08-0.61,0.38
		c-0.21,0.45-1.02,4.64-0.94,5c0.04,0.18,0.43,0.06,0.47,0.47c0.03,0.29-0.15,1.77-0.27,1.87c-0.23,0.19-3.75-0.09-4.41,0.02
		c-0.05-0.61,0.05-1.19,0.22-1.77c0.22-0.3,0.52-0.52,0.89-0.66c0.13-0.66,0.11-1.43,0.22-1.99c0.01-0.04,0.28-0.32,0.34-0.64
		c0.08-0.43,0.46-2.52,0.32-2.68C90.15,88.52,90.17,88.9,89.97,89.09z"/>
	<path class="st11" d="M54.29,86.65c1.47,0.01,2.96-0.01,4.43,0c0.09,0.09-0.19,1.58-0.33,1.77c-0.24,0.31-0.65,0.07-1.02,0.76
		c-0.16,0.3-1.07,4.45-1.03,4.68c0.04,0.28,0.46,0.4,0.72,0.32c0.44-0.14,0.03-0.98,1.1-1.12c2.49-0.33,0.91,1.84,0.76,3.31
		c-2.13,0.05-4.27,0.04-6.4,0.03c-0.46-0.21-0.43-1.77,0.22-1.77l-0.29-0.55c1.17-2.34,1.38-4.78,1.46-7.3L54.29,86.65z"/>
	<path class="st12" d="M110.36,86.65c1.47,0,2.96,0,4.43,0c0.09,0.09-0.02,1.63-0.2,1.86c-0.19,0.25-0.68,0.06-0.92,0.23
		c-0.3,0.21-1.3,5.24-1.1,5.44c0.46,0.46,0.95-0.67,1.11-0.77c0.46-0.29,1.42-0.04,1.99-0.11l-0.7,3.07
		c-2.13,0.05-4.27,0.04-6.4,0.03c-0.58-0.34-0.07-2.18,0.49-2.61c0.35-1.4,0.64-2.82,0.84-4.25
		C109.68,88.36,109.83,87.39,110.36,86.65z"/>
	<path class="st7" d="M53.63,86.65c0.36,0.03,0.28,1.63,0.18,2.01c-0.81,1.46-1.31,3.08-1.46,4.75l-0.49,0.55
		c0.44,0.63,0.76,2.12,0,2.44c-1.33-0.01-2.66,0.01-3.99,0c-0.05-0.66,0.12-1.33,0.38-1.94c0.58-1.32,1.42-3.54,1.58-5.1
		c0.05-0.49-0.4-0.74-0.43-1.27c-0.01-0.2,0.21-1.37,0.27-1.42C49.81,86.54,53.05,86.65,53.63,86.65z"/>
	<path class="st13" d="M78.23,36.34c0.02,0.01-0.05,0.33,0.06,0.37c0.78,0.35,1.63,0.4,1.89,1.56c0.43,1.86-0.86,2.44-0.86,3.28
		c0,0.76,1.07,1.41,0.91,1.98c-1.9,1.52-1.9-1.58-3.43-1.66c-0.79-0.04,0.03,1.5-0.55,1.91c-0.34,0.23-1.79,0.15-1.79-0.23v-7.2
		C75.1,36.48,77.93,36.16,78.23,36.34z"/>
	<path class="st9" d="M121.44,86.65c0.33,0.56,0.41,2.37-0.55,2.49c-0.54,1.82-0.88,3.65-1.01,5.49c0.49,0.07,0.08,1.43-0.44,1.33
		c-0.17,0.36-3.39,0.29-3.53,0.16c-0.52-0.46,0.23-1.57,0.58-1.99l0.29-1.05c0.16-0.93,0.69-3.17,0.68-3.89
		c-0.01-0.56-0.68-1.5-0.14-2.33C117.58,86.48,120.74,86.65,121.44,86.65z"/>
	<path class="st14" d="M49.42,80.22c-0.73,0.04-1.98-0.04-2.44,0c2.32-3.51,0.92-9.98-4.27-9.03c-0.81,0.15-1.02,0.68-1.71,0.83
		c0.93-2.42,4.31-3.41,6.37-1.83C50.15,72.34,50.87,77.12,49.42,80.22z"/>
	<path class="st15" d="M67.15,44.32l1.97-7.17c0.17-0.24,1.47-0.41,1.79-0.26c0.6,0.29,2.68,5.71,3.33,6.65
		c-1.79,1.25-1.75-0.35-2.3-0.79c-0.45-0.36-2.31-0.1-2.7,0.22C68.62,43.46,69.28,44.8,67.15,44.32z"/>
	<path class="st4" d="M105.71,87.98c-0.25-1.56,3.5-1.48,3.83-1.16c0.17,0.16-0.01,1.1-0.07,1.38c0.18,0.55,0.06,1.19-0.36,1.92
		c-0.11,0.96-0.43,1.65-0.97,2.07c-1.54,0.55-0.59,0.89-0.5,1.5c0.26,1.73-0.48,2.79-2.37,2.14c-0.98-0.33-0.75-1.01-0.9-1.21
		c-0.14-0.54,0.49-0.44,0.63-0.81c0.13-0.37,0.92-4.34,0.92-4.65C105.92,88.65,105.68,88.66,105.71,87.98z"/>
	<path class="st16" d="M87.76,44.1c-0.52-0.19-1.64-0.26-1.45-1.13c0.4-1.8,2.63,0.28,3.45-0.3c1.27-0.9-2.29-1.76-2.67-2.22
		c-0.79-0.95-0.36-2.97,0.88-3.34c1.1-0.33,4.93-0.24,3.58,1.58c-0.64,0.86-2.58-1.1-3.12,0.42c1.51,0.9,3.88,1.38,3.27,3.72
		c-0.12,0.46-0.66,0.99-1.05,1.27C89.69,44.65,88.74,44.4,87.76,44.1z"/>
	<path class="st17" d="M110.36,86.65c-0.52,0.97,0.02,1.86,0.01,2.76c-0.01,0.62-0.68,4.04-0.91,4.6c-0.09,0.22-0.57,0.39-0.76,1.06
		c-0.13,0.45-0.14,0.88-0.11,1.33c-0.22,0-0.44,0-0.66,0c0.03-0.46,0.39-1.07,0.38-1.48c0-0.84-0.41-1.34-0.16-2.73
		c0.25-1.37,0.68-2.89,1.33-3.99c0.13-0.48,0.13-0.93-0.02-1.34l0.46-0.21C110.06,86.65,110.21,86.65,110.36,86.65z"/>
	<path class="st18" d="M121.88,86.65c-0.01,0.44,0.01,0.89,0,1.33c0.34,0.81,0.34,1.55,0,2.22c-0.02,0.28-0.18,0.87-0.22,1.33
		c-0.03,0.92-0.25,1.65-0.66,2.22c-0.02,0.07,0.02,0.15,0,0.22c-0.4,0.63-0.77,0.86-1.11,0.66c-0.43-0.29-0.46-0.69-0.4-1.16
		c0.07-0.58,0.88-4.27,1.06-4.68c0.12-0.29,0.58,0.01,0.68-0.28c0.13-0.38,0.1-1.38,0.21-1.86
		C121.59,86.65,121.74,86.65,121.88,86.65z"/>
	<path class="st19" d="M54.29,86.65c-0.49,1,0.02,1.91-0.05,2.92c-0.12,1.84-1,3.46-1.5,5.06c-0.26,0.68-0.56,0.46-0.89-0.66
		c0.13-2.12,0.62-3.78,1.55-5.49c0.25-0.46,0.23-1.3,0.23-1.82C53.85,86.65,54.07,86.65,54.29,86.65z"/>
	<path class="st20" d="M84.81,35.93c0.82-0.23,1.43,0.69,1.41,1.41c-0.01,0.51-0.91,2.76-1.68,2.54c-0.62-0.18-0.09-1.09-0.11-1.44
		C84.39,37.74,83.74,36.23,84.81,35.93z"/>
	<path class="st21" d="M82.88,43.66c-0.5-1.46-0.65-3.06-0.45-4.79c0.29-0.24,0.26-3.38-0.52-2.08c-0.18,0.3-0.27,6.12-0.11,6.39
		C82.4,43.11,82.76,43.27,82.88,43.66c-0.44,0.44-1.18,0.16-1.77,0.22c0.23-1.21-0.34-6.93,0.1-7.55c0.24-0.34,1.91-0.39,2.09,0.16
		c0.18,0.54,0.07,3.4,0.03,4.18C83.29,41.22,83.07,43.47,82.88,43.66z"/>
	<path class="st22" d="M50.3,57.62c0.17-0.08,0.28-0.36,0.66-0.22l0,1.11l0.44-0.22c-0.52,1.41-0.65,3.3-1.77,4.43
		c-0.05-1.47,0.79-3,1.05-4.38C50.78,57.91,50.96,57.5,50.3,57.62z"/>
	<path class="st23" d="M61.83,64.71c0,1.14-2.84,1.8-3.1,0.99C58.36,64.54,61.25,64.67,61.83,64.71z"/>
	<path class="st7" d="M47.2,90.86c0.26,0.44-0.85,0.49-0.44,0.88c0.03,0.03,0.54-0.02,0.9,0.32c0.64,0.62,0.35,2.18-0.04,2.87
		c-0.3,0.54-0.57,0.4-0.86,0.58c0.99-0.99,1.31-4.14-0.77-3.54C45.53,91.23,46.53,90.84,47.2,90.86z"/>
	<path class="st24" d="M98.84,96.4c0.22-1.12,0.22-1.98,0-3.1l1.42,0c0.38,1.04-1.22,1.67-0.76,3.11
		C99.28,96.4,99.06,96.4,98.84,96.4z"/>
	<path class="st12" d="M109.92,86.65c-0.04,0.58-0.14,1.04-0.44,1.55c-0.06-0.28-0.11-1.28-0.36-1.34
		c-0.18-0.05-2.15-0.04-2.37,0.01c-0.21,0.05-0.55,1.04-1.04,1.11c0.01-0.42-0.16-1.12,0.36-1.3
		C106.69,86.47,109.03,86.66,109.92,86.65z"/>
	<path class="st12" d="M116.79,93.07c-0.06,0.34,0.03,0.71-0.1,1.13c-0.12,0.42-1.19,0.86-0.7,1.54c0.33,0.46,2.77,0.1,3.45,0.21
		c0.54,0.07,0.52,0.27,0,0.44c-1.25-0.01-2.51,0.01-3.77,0C115.38,95.01,116.34,94.27,116.79,93.07z"/>
	<path class="st25" d="M40.11,69.81c-0.33,0.9-0.41,2.06-1,2.88c-0.56,0.12-0.34-0.68-0.3-0.97c0.1-0.83,0.47-1.18,0.64-1.69
		c0.05,0.38-0.18,0.96,0.22,0.89C39.66,70.49,39.6,69.94,40.11,69.81z"/>
	<path class="st26" d="M26.81,94.18c0.23-0.57,0.68-0.93,0.44-1.77l-0.44,0.22c0.23-0.48,0.42-1.12,0.72-1.61
		c0.16-0.26,0.35-0.74,0.39-0.05C27.49,91.8,27.93,93.96,26.81,94.18z"/>
	<path class="st27" d="M110.58,60.06c1.2,0.13,2.86-0.15,3.55,0.89c-1.2-0.19-1.48-0.2-2.5-0.59
		C111.26,60.21,110.78,60.38,110.58,60.06z"/>
	<path class="st28" d="M121,93.96c-0.23,0.76-1.02,1.31-0.66,2.44c-0.3,0-0.59,0-0.89,0c0.03-0.14-0.04-0.34,0-0.44
		c0.13-0.33,0.41-1.27,0.44-1.33C119.92,94.57,120.83,94,121,93.96z"/>
	<path class="st29" d="M51.86,93.96c0.42,0.18,0.36,0.8,0.89,0.66c-0.18,0.58-0.28,1.16-0.22,1.77c-0.22,0-0.44,0-0.66,0
		C52.2,95.55,51.81,94.63,51.86,93.96z"/>
	<path class="st30" d="M118.56,62.71c0.7,0.77,0.67,1.44,0.88,2.44c-0.82-0.27-0.86-1.34-1.11-1.77l0.44,0.22L118.56,62.71z"/>
	<path class="st31" d="M57.84,34.35c-0.61,0.98-1.64,0.65-2.66,0.89C56.03,34.42,56.78,34.54,57.84,34.35z"/>
	<path class="st32" d="M51.41,66.26c0.36,0.35-1.19,2.14-1.01,0.21C50.55,66.22,51.34,66.19,51.41,66.26z"/>
	<path class="st30" d="M118.12,63.16l-0.66-0.22l0.22,1.55c-0.18-0.47-0.72-1.08-0.66-1.77C117.69,62.63,117.77,62.72,118.12,63.16z
		"/>
	<path class="st33" d="M90.64,44.1c-1.22,0.85-1.69,0.44-2.88,0C88.79,44.25,89.6,44.42,90.64,44.1z"/>
	<path class="st34" d="M73.8,67.59c-0.45,0.5-0.86,1.06-1.33,1.55C72.76,68.55,72.74,67.7,73.8,67.59z"/>
	<path class="st0" d="M27.7,86.65c-0.14,0.62-0.66,1.15-0.89,1.55C26.92,87.54,26.97,86.72,27.7,86.65z"/>
	<path class="st35" d="M89.75,93.96c-0.14,0.71,0.31,0.74-0.89,0.66c0.05-0.16,0.11-0.61,0.22-0.66C89.2,93.9,89.57,94,89.75,93.96z
		"/>
	<path class="st36" d="M102.82,103.71l-1.24,1.29c-4.48,2.59-8.52,5.67-12.77,8.53c-3.13,2.1-6.19,4.22-9.4,6.08l-23.56-15.9
		L102.82,103.71z"/>
	<path class="st37" d="M113.46,67.37c-0.64,0.12-0.35-0.19-0.5-0.49c-0.77-1.58-1.59-3.51-1.71-5.27c0.5-0.09,0.6,0.32,0.78,0.66
		C112.72,63.64,113.04,65.85,113.46,67.37z"/>
	<path class="st38" d="M107.48,66.7c-0.73-0.35-2.73-4.98-2.43-5.32c0.67-0.04,0.96,0.85,1.19,1.36
		C106.75,63.91,107.13,65.46,107.48,66.7z"/>
	<path class="st39" d="M110.14,66.48c-0.33-0.06-0.43-0.4-0.55-0.67c-0.37-0.83-1.11-2.51-1.34-3.31c-0.33-1.17,0.26-1.66,0.73-0.73
		C109.5,62.77,109.95,65.3,110.14,66.48z"/>
	<path class="st40" d="M115.01,61.83c0.45,0.38,1.18,4.24,1.33,5.1c-0.85-0.82-1.92-3.93-1.77-4.99
		C114.6,61.75,114.97,61.79,115.01,61.83z"/>
	<path class="st41" d="M74.24,79.56c0-1.57-0.09-3.16,0.28-4.7c0.94-3.93,5.15-6.42,8.37-3.17c1.84,1.86,2.23,5.4,1.76,7.88
		C81.27,79.55,77.61,79.53,74.24,79.56z"/>
	<path class="st9" d="M121,93.74c0.23-0.72,0.25-1.58,0.66-2.22C121.59,92.29,122.05,93.71,121,93.74z"/>
	<path class="st9" d="M121.88,87.98c-0.03,0.59,0.45,0.24,0.47,0.98c0.01,0.48,0.06,1.08-0.47,1.24
		C121.93,89.37,121.87,88.64,121.88,87.98z"/>
	<path class="st42" d="M74.46,94.18c-0.23-0.23,0.8-5.24,1.1-5.44c0.53-0.36,1.15-0.08,1.11,0.64
		C76.61,90.52,76.06,94.63,74.46,94.18z"/>
	<path class="st43" d="M99.5,91.97l0.77-2.21C100.92,90.62,100.89,92.29,99.5,91.97z"/>
	<path class="st44" d="M44.99,92.19c0.01,0.52,0.06,1.4-0.33,1.78c-0.24,0.24-1.11,0.32-1.22,0.21c-0.07-0.07,0.15-1.92,0.22-1.99
		C43.72,92.12,44.71,92.23,44.99,92.19z"/>
	<path class="st45" d="M44.1,90.64c-0.11-0.09,0.19-2.71,1.34-1.9C46.32,89.35,44.94,91.35,44.1,90.64z"/>
	<path class="st46" d="M36.04,88.66c1.43-0.49,0.81,1.71,0.69,2.47c-0.11,0.7-0.52,3.37-1.6,3.05
		C34.25,93.92,35.52,88.84,36.04,88.66z"/>
	<path class="st3" d="M89.97,89.09c0.27,1.17-1.18,0.51-1.77,0.66c0.06-0.5,0.19-3.02,0.59-3.11l7.83,0.01L96.4,88.2
		c0.03-0.44-0.02-0.89,0-1.33L89,86.86l-0.58,2.67C89.39,89.61,89.4,89.65,89.97,89.09z"/>
	<path class="st47" d="M78.17,38.17c1.02,0.88-0.57,2.81-1.69,2.13c-0.26-0.16-0.38-1.87-0.16-2.2
		C76.59,37.73,77.91,37.94,78.17,38.17z"/>
	<path class="st48" d="M70.47,39.23c0.07,0.06,0.73,1.69,0.67,1.77c-1.75,0.6-1.63-0.06-1.13-1.46
		C70.09,39.28,70.11,38.92,70.47,39.23z"/>
	<path class="st49" d="M82.88,43.66l-1.55,0c0.15-1-0.34-7.15,0.37-7.32c2.06-0.48,1.2,1.41,1.17,2.55
		C82.83,40.47,82.92,42.07,82.88,43.66z"/>
	<path class="st50" d="M79.55,105.04c0.28,0.27,0.38,2.14,0.65,2.34c0.4,0.29,1.88-0.01,2.45,0.1c0.13,1-1.57,1.45-1.74,2.15
		c-0.1,0.43,0.8,2.56,0.63,2.72c-0.93,0.16-1.52-1.61-2.29-1.51c-0.43,0.06-1.84,1.83-2.15,1.51c-0.06-0.75,0.8-2.11,0.63-2.72
		c-0.17-0.64-1.78-1.3-1.96-2.15c0.6-0.12,2.26,0.2,2.67-0.1c0.18-0.13,0.38-1.55,0.63-2.03C79.18,105.19,79.17,104.66,79.55,105.04
		z"/>
	<path class="st51" d="M86.42,107.04c-0.06,0.84,0.35,0.96,1.11,0.89c-0.19,1-0.82,1.21-0.45,2.44c-0.89-0.67-1.11-0.35-1.99,0
		c0.39-1.22-0.04-1.13-0.34-1.77c-0.37-0.79,0.88-0.63,0.96-0.7C85.87,107.77,85.75,106.86,86.42,107.04z"/>
	<path class="st52" d="M73.18,108.32c0.15,0.1,0.42,0.03,0.61,0.05c-0.57,0.67-0.8,0.83-0.23,1.66c-0.4,0.63-0.51-0.09-0.98-0.1
		c-0.24-0.01-0.89,0.33-1.01,0.21c-0.08-0.09,0.38-1.4-0.44-1.77c0.8,0.16,1.03-0.67,1.11-1.33
		C72.82,107.09,73.01,108.21,73.18,108.32z"/>
	<path class="st53" d="M90.14,107.99c0.91,0.43,0.18,1.78-0.84,1.26C89.33,108.57,89.32,107.61,90.14,107.99z"/>
	<path class="st54" d="M68.91,107.94c0.03,0.02,0.46,0.53,0.46,0.56c0.01,0.56-0.43,0.95-0.99,0.76
		C67.77,109.06,68.38,107.6,68.91,107.94z"/>
</g>
</svg>
